<svg width="18" height="20" viewBox="0 0 18 20" fill="none" xmlns="http://www.w3.org/2000/svg">
<path d="M3.1155 19.5C2.389 19.5 1.77142 19.2457 1.26275 18.7372C0.75425 18.2286 0.5 17.611 0.5 16.8845V3.1155C0.5 2.389 0.75425 1.77142 1.26275 1.26275C1.77142 0.75425 2.389 0.5 3.1155 0.5H12C12.4972 0.5 12.9228 0.677 13.2768 1.031C13.6308 1.385 13.8077 1.81058 13.8077 2.30775V14C13.8077 14.4972 13.6308 14.9228 13.2768 15.2768C12.9228 15.6308 12.4972 15.8077 12 15.8077H3.1155C2.8065 15.8077 2.54333 15.9126 2.326 16.1223C2.10867 16.3321 2 16.5921 2 16.9023C2 17.2122 2.10867 17.4727 2.326 17.6838C2.54333 17.8946 2.8065 18 3.1155 18H15.6923C15.7821 18 15.8558 17.9712 15.9135 17.9135C15.9712 17.8558 16 17.7821 16 17.6923V3.25C16 3.0375 16.0719 2.85942 16.2158 2.71575C16.3596 2.57192 16.5378 2.5 16.7502 2.5C16.9629 2.5 17.141 2.57192 17.2845 2.71575C17.4282 2.85942 17.5 3.0375 17.5 3.25V17.6923C17.5 18.1894 17.323 18.615 16.969 18.969C16.615 19.323 16.1894 19.5 15.6923 19.5H3.1155ZM5.69225 14.3077H12C12.0898 14.3077 12.1636 14.2789 12.2212 14.2212C12.2789 14.1636 12.3077 14.0898 12.3077 14V2.30775C12.3077 2.21792 12.2789 2.14417 12.2212 2.0865C12.1636 2.02883 12.0898 2 12 2H5.69225V14.3077ZM4.19225 14.3077V2H3.1155C2.79933 2 2.53442 2.10867 2.32075 2.326C2.10692 2.54333 2 2.8065 2 3.1155V14.598C2.173 14.516 2.34983 14.4471 2.5305 14.3913C2.71117 14.3356 2.90617 14.3077 3.1155 14.3077H4.19225Z" fill="#1C1B1F"/>
</svg>