<svg width="19" height="22" viewBox="0 0 19 22" fill="none" xmlns="http://www.w3.org/2000/svg">
<path d="M16.6923 17.5H6.30775C5.80258 17.5 5.375 17.325 5.025 16.975C4.675 16.625 4.5 16.1974 4.5 15.6923V2.30775C4.5 1.80258 4.675 1.375 5.025 1.025C5.375 0.675 5.80258 0.5 6.30775 0.5H12.502C12.743 0.5 12.9748 0.546833 13.1973 0.6405C13.4196 0.734 13.6128 0.862834 13.777 1.027L17.973 5.223C18.1372 5.38717 18.266 5.58042 18.3595 5.80275C18.4532 6.02525 18.5 6.257 18.5 6.498V15.6923C18.5 16.1974 18.325 16.625 17.975 16.975C17.625 17.325 17.1974 17.5 16.6923 17.5ZM17 6.5H13.7115C13.3718 6.5 13.085 6.383 12.851 6.149C12.617 5.915 12.5 5.62817 12.5 5.2885V2H6.30775C6.23075 2 6.16025 2.03208 6.09625 2.09625C6.03208 2.16025 6 2.23075 6 2.30775V15.6923C6 15.7692 6.03208 15.8398 6.09625 15.9038C6.16025 15.9679 6.23075 16 6.30775 16H16.6923C16.7693 16 16.8398 15.9679 16.9038 15.9038C16.9679 15.8398 17 15.7692 17 15.6923V6.5ZM2.30775 21.5C1.80258 21.5 1.375 21.325 1.025 20.975C0.675 20.625 0.5 20.1974 0.5 19.6923V7.25C0.5 7.03717 0.571833 6.859 0.7155 6.7155C0.859 6.57183 1.03717 6.5 1.25 6.5C1.46283 6.5 1.641 6.57183 1.7845 6.7155C1.92817 6.859 2 7.03717 2 7.25V19.6923C2 19.7693 2.03208 19.8398 2.09625 19.9038C2.16025 19.9679 2.23075 20 2.30775 20H11.75C11.9628 20 12.141 20.0718 12.2845 20.2155C12.4282 20.359 12.5 20.5372 12.5 20.75C12.5 20.9628 12.4282 21.141 12.2845 21.2845C12.141 21.4282 11.9628 21.5 11.75 21.5H2.30775Z" fill="#1C1B1F"/>
</svg>