<svg width="20" height="19" viewBox="0 0 20 19" fill="none" xmlns="http://www.w3.org/2000/svg">
<path d="M11.75 12.7692C11.9948 12.7692 12.2086 12.6779 12.3913 12.4952C12.5739 12.3126 12.6652 12.0988 12.6652 11.8538C12.6652 11.6089 12.5739 11.3952 12.3913 11.2125C12.2086 11.0298 11.9948 10.9385 11.75 10.9385C11.5052 10.9385 11.2914 11.0298 11.1087 11.2125C10.9259 11.3952 10.8345 11.6089 10.8345 11.8538C10.8345 12.0988 10.9259 12.3126 11.1087 12.4952C11.2914 12.6779 11.5052 12.7692 11.75 12.7692ZM11.75 9.7615C11.9013 9.7615 12.0385 9.70767 12.1615 9.6C12.2845 9.49233 12.3595 9.35583 12.3865 9.1905C12.4198 8.95833 12.4938 8.75575 12.6085 8.58275C12.7233 8.40958 12.9384 8.17175 13.2538 7.86925C13.7153 7.42692 14.0293 7.05317 14.196 6.748C14.3627 6.443 14.446 6.08858 14.446 5.68475C14.446 4.97308 14.1947 4.38617 13.6923 3.924C13.1898 3.46183 12.5423 3.23075 11.75 3.23075C11.2385 3.23075 10.7706 3.34933 10.3463 3.5865C9.92175 3.82367 9.58258 4.16275 9.32875 4.60375C9.24808 4.73842 9.23975 4.87983 9.30375 5.028C9.36792 5.176 9.47758 5.28208 9.63275 5.34625C9.77758 5.41025 9.92308 5.41692 10.0693 5.36625C10.2154 5.31575 10.334 5.22317 10.425 5.0885C10.5878 4.84617 10.7788 4.66442 10.998 4.54325C11.2173 4.42208 11.468 4.3615 11.75 4.3615C12.1885 4.3615 12.5487 4.48842 12.8307 4.74225C13.1127 4.99608 13.2538 5.33075 13.2538 5.74625C13.2538 5.99875 13.1823 6.23558 13.0395 6.45675C12.8965 6.67792 12.6487 6.95 12.2962 7.273C11.8641 7.64483 11.5782 7.95125 11.4385 8.19225C11.2987 8.43325 11.2121 8.75767 11.1788 9.1655C11.1621 9.3205 11.2102 9.45858 11.323 9.57975C11.4358 9.70092 11.5782 9.7615 11.75 9.7615ZM6.05775 15.5C5.55258 15.5 5.125 15.325 4.775 14.975C4.425 14.625 4.25 14.1974 4.25 13.6923V2.30775C4.25 1.80258 4.425 1.375 4.775 1.025C5.125 0.675 5.55258 0.5 6.05775 0.5H17.4423C17.9474 0.5 18.375 0.675 18.725 1.025C19.075 1.375 19.25 1.80258 19.25 2.30775V13.6923C19.25 14.1974 19.075 14.625 18.725 14.975C18.375 15.325 17.9474 15.5 17.4423 15.5H6.05775ZM6.05775 14H17.4423C17.5193 14 17.5898 13.9679 17.6538 13.9038C17.7179 13.8398 17.75 13.7692 17.75 13.6923V2.30775C17.75 2.23075 17.7179 2.16025 17.6538 2.09625C17.5898 2.03208 17.5193 2 17.4423 2H6.05775C5.98075 2 5.91025 2.03208 5.84625 2.09625C5.78208 2.16025 5.75 2.23075 5.75 2.30775V13.6923C5.75 13.7692 5.78208 13.8398 5.84625 13.9038C5.91025 13.9679 5.98075 14 6.05775 14ZM2.55775 19C2.05258 19 1.625 18.825 1.275 18.475C0.925 18.125 0.75 17.6974 0.75 17.1923V5.05775C0.75 4.84492 0.821833 4.66667 0.9655 4.523C1.109 4.3795 1.28717 4.30775 1.5 4.30775C1.71283 4.30775 1.89108 4.3795 2.03475 4.523C2.17825 4.66667 2.25 4.84492 2.25 5.05775V17.1923C2.25 17.2693 2.28208 17.3398 2.34625 17.4038C2.41025 17.4679 2.48075 17.5 2.55775 17.5H14.6923C14.9051 17.5 15.0833 17.5718 15.227 17.7153C15.3705 17.8589 15.4423 18.0372 15.4423 18.25C15.4423 18.4628 15.3705 18.641 15.227 18.7845C15.0833 18.9282 14.9051 19 14.6923 19H2.55775Z" fill="#3D404B"/>
</svg>